<svg width="400" height="160" viewBox="0 0 400 160" xmlns="http://www.w3.org/2000/svg" role="img" aria-label="Logo Pousse">
  <rect width="400" height="160" fill="none"/>

  <g transform="translate(40, 30)">
    <circle cx="50" cy="50" r="50" fill="#E7EFE8"/>

    <path d="M50 78 C50 64 50 52 50 40" stroke="#5A8262" stroke-width="5" stroke-linecap="round" fill="none"/>

    <path d="M50 52 C50 40 42 30 28 28 C30 42 38 50 50 52 Z" fill="#7FB089"/>
    <path d="M50 46 C50 34 58 24 72 22 C70 36 62 44 50 46 Z" fill="#9FC4A4"/>

    <path d="M50 40 C50 30 50 24 50 20" stroke="#5A8262" stroke-width="5" stroke-linecap="round" fill="none"/>
    <circle cx="50" cy="16" r="9" fill="#F3C8D2"/>
    <circle cx="50" cy="16" r="3.5" fill="#E9B85E"/>

    <path d="M30 80 Q50 74 70 80" stroke="#86A98B" stroke-width="3" stroke-linecap="round" fill="none"/>
  </g>

  <text x="160" y="78" font-family="Nunito, system-ui, sans-serif" font-size="46" font-weight="700" fill="#2E4034">Pousse</text>
  <text x="162" y="102" font-family="Nunito, system-ui, sans-serif" font-size="15" font-weight="500" fill="#7A8B7E" letter-spacing="0.5">jour après jour</text>
</svg>
